<svg xmlns="http://www.w3.org/2000/svg" xmlns:lucid="lucid" width="693.25" height="390"><g lucid:page-tab-id="0_0"><path d="M414.83 310c0 33.14-26.86 60-60 60s-60-26.86-60-60 26.86-60 60-60 60 26.86 60 60z" stroke="#000" stroke-width="2" fill="#fff"/><path d="M404.83 310c0 27.6-22.4 50-50 50-27.62 0-50-22.4-50-50s22.38-50 50-50c27.6 0 50 22.4 50 50zM567.08 148.2c0 33.14-26.86 60-60 60s-60-26.86-60-60c0-33.13 26.86-60 60-60s60 26.87 60 60zM251.4 148.2c0 33.14-26.86 60-60 60-33.13 0-60-26.86-60-60 0-33.13 26.87-60 60-60 33.14 0 60 26.87 60 60z" stroke="#000" stroke-width="2" fill="#fff"/><path d="M191.43 210.2l.1 4.5.4 5.4.66 5.3.9 5.23 1.13 5.12 1.38 5.02 1.62 4.9 1.83 4.78 2.04 4.64 2.25 4.5 2.45 4.36 2.64 4.2 2.82 4.05 3 3.88 3.15 3.7 3.32 3.5 3.45 3.3 3.58 3.13 3.7 2.93 3.82 2.72 3.93 2.52 4.03 2.32 4.12 2.1 4.22 1.9 4.3 1.7 4.4 1.5 4.46 1.27 4.56 1.06 4.63.84 1.1.15" stroke="#000" stroke-width="2" fill="none"/><path d="M191.4 209.2l1-.03.03 1.04-2 .06-.03-1.1z"/><path d="M290.66 311.52l-14.5 3.88.5-9.26z" stroke="#000" stroke-width="2"/><path d="M507.06 210.2l-.13 4.94-.43 5.83-.7 5.73-1 5.6-1.23 5.45-1.5 5.3-1.7 5.12-1.93 4.95-2.13 4.74-2.3 4.55-2.5 4.34-2.63 4.12-2.8 3.9-2.9 3.7-3.04 3.46-3.15 3.26-3.25 3.04-3.34 2.83-3.44 2.62-3.52 2.43-3.6 2.22-3.67 2.03-3.76 1.84-3.83 1.64-3.93 1.45-4.02 1.26-4.1 1.08-2.32.48" stroke="#000" stroke-width="2" fill="none"/><path d="M507.08 209.2l1-.03-.02 1.1-2-.06.02-1.04z"/><path d="M419.05 309.67l13.72-6.06.94 9.23z" stroke="#000" stroke-width="2"/><path d="M253.4 148.18l11.1-.23 14.35-.92 18.92-2 80.92-11.52 9.26-.58 7.18-.16 5.9.12 5.05.32 4.4.46 3.9.58 3.55.67 3.23.77 2.98.83 2.78.9 2.6.97.76.32" stroke="#000" stroke-width="2" fill="none"/><path d="M253.46 149.18l-1.1.03.05-1-.03-1 1.04-.02z"/><path d="M443.3 146.53l-14.6-3.4 4.8-7.93z" stroke="#000" stroke-width="2"/><path d="M445.08 148.23l-9.96.2-12.34.8-14.9 1.57-22.27 3.34-53.3 8.98-10.4 1.1-7.88.5-6.5.15-5.58-.12-4.96-.3-4.5-.48-4.12-.6-3.85-.74-3.6-.85-3.46-.96-3.3-1.07-3.18-1.2-2.6-1.07" stroke="#000" stroke-width="2" fill="none"/><path d="M446.08 148.2l.04 1-1.05.03-.04-2 1.1-.03z"/><path d="M255.2 149.83l14.67 3.16-4.66 8z" stroke="#000" stroke-width="2"/><path d="M285.82 80h126.85v40H285.82z" fill="#fff" fill-opacity="0"/><path d="M292.4 81.8h10.87c6.63 0 9.83 2.35 9.83 6.68 0 2.43-1.22 4.9-3.07 6.45-2.07 1.7-5.23 2.57-9.24 2.57-1.9 0-2.9-.1-4.07-.36l-2.4 8.7c-.3 1.22-.62 2.16-.62 2.84 0 1.04.7 1.58 3.12 1.85v.72h-11v-.72c2.57-.36 2.98-.77 3.8-3.7l5.22-18.67c.58-2.12.77-3.06.77-3.74 0-1.22-.63-1.58-3.2-1.9v-.72m7.85 2.76l-3.1 11.04c1.3.23 1.52.23 2.33.23 2.8 0 4.38-.27 5.78-1.08 1.98-1.13 3.2-3.1 3.2-6.05 0-4-2.17-5.54-5.87-5.54-1.27 0-2.08.36-2.35 1.4M327.08 118.5l-.54.73c-7.13-4.06-11-11.68-11-19.34 0-8.35 3.92-14.85 11.13-19.13l.4.72c-6.26 5.36-7.66 9.55-7.66 18.25 0 8.4 1.37 13.48 7.68 18.76M334.3 81.8h11.27c6.27 0 9.38 2.3 9.38 6.77 0 2.43-1.26 4-2.9 5.1-1.4.94-3.05 1.35-5 1.75v.05c3.88 1.17 5.7 3.56 5.7 6.76 0 6.04-5.1 9.02-12.4 9.02h-12.28v-.72c2.48-.36 2.98-.8 3.74-3.6l5.47-19.67c.32-1.13.5-2.2.5-2.88 0-1.3-.63-1.63-3.47-1.85v-.73m5.32 13.08h1.7c5.92 0 9.07-2.4 9.07-6.85 0-3.34-1.63-4.87-5.28-4.87-1.76 0-2.2 0-2.66 1.62m-3.3 11.54l-1.44 5.37c-.9 3.42-1.58 5.72-1.58 6.3 0 1.27 1.13 1.9 3.03 1.9 5.18 0 8.7-2.66 8.7-7.67 0-2.8-1.3-4.78-3.02-5.36-.9-.32-2.84-.55-5.68-.55M361.98 111.88H359v-31.1H362v31.1M396.57 92.4c0 6.6-3.97 12.85-9.34 16.46-2.93 1.98-6.3 3.2-9.65 3.2-5.86 0-9.83-3.83-9.83-10.55 0-5.5 3.3-11.8 8-15.9 3.1-2.7 6.84-4.38 10.67-4.38 6.5-.05 10.15 4.33 10.15 11.18m-4.74-2.84c0-4.24-2.2-6.85-5.8-6.85-3.35 0-6.2 2.3-8.4 5.28-3.3 4.47-5.14 10.46-5.14 14.97 0 4.92 2.06 7.62 5.85 7.62 3.02 0 5.6-1.75 7.67-4.28 3.78-4.7 5.8-12.14 5.8-16.74M398.9 81.5l.55-.73c6.9 4.15 11 11.68 11 19.34 0 8.35-3.96 14.76-11.13 19.13l-.4-.72c6.4-5.27 7.66-9.5 7.66-18.25 0-8.43-1.13-13.62-7.67-18.76"/><path d="M287.98 180h126.85v40H287.98z" fill="#fff" fill-opacity="0"/><path d="M294.57 181.8h10.86c6.63 0 9.83 2.35 9.83 6.68 0 2.43-1.2 4.9-3.06 6.45-2.08 1.7-5.23 2.57-9.25 2.57-1.9 0-2.88-.1-4.06-.36l-2.4 8.7c-.3 1.22-.63 2.16-.63 2.84 0 1.04.68 1.58 3.1 1.85v.72h-11v-.72c2.58-.36 3-.77 3.8-3.7l5.23-18.67c.6-2.12.77-3.06.77-3.74 0-1.22-.63-1.58-3.2-1.9v-.72m7.84 2.76l-3.1 11.04c1.3.23 1.53.23 2.35.23 2.8 0 4.37-.27 5.77-1.08 1.98-1.13 3.2-3.1 3.2-6.05 0-4-2.17-5.54-5.86-5.54-1.27 0-2.08.36-2.35 1.4M329.24 218.5l-.54.73c-7.12-4.06-11-11.68-11-19.34 0-8.35 3.92-14.85 11.14-19.13l.4.72c-6.27 5.36-7.66 9.55-7.66 18.25 0 8.4 1.35 13.48 7.66 18.76M362.12 192.4c0 6.6-3.97 12.85-9.34 16.46-2.93 1.98-6.3 3.2-9.65 3.2-5.86 0-9.83-3.83-9.83-10.55 0-5.5 3.3-11.8 7.98-15.9 3.1-2.7 6.86-4.38 10.7-4.38 6.48-.05 10.14 4.33 10.14 11.18m-4.74-2.84c0-4.24-2.2-6.85-5.82-6.85-3.33 0-6.17 2.3-8.38 5.28-3.3 4.47-5.14 10.46-5.14 14.97 0 4.92 2.07 7.62 5.86 7.62 3.02 0 5.6-1.75 7.66-4.28 3.8-4.7 5.82-12.14 5.82-16.74M369.15 211.88h-2.98v-31.1h2.98v31.1M378.08 181.8h11.27c6.27 0 9.38 2.3 9.38 6.77 0 2.43-1.26 4-2.9 5.1-1.38.94-3.05 1.35-5 1.75v.05c3.9 1.17 5.7 3.56 5.7 6.76 0 6.04-5.1 9.02-12.4 9.02h-12.27v-.72c2.48-.36 2.97-.8 3.74-3.6l5.45-19.67c.32-1.13.5-2.2.5-2.88 0-1.3-.63-1.63-3.47-1.85v-.73m5.32 13.08h1.7c5.92 0 9.08-2.4 9.08-6.85 0-3.34-1.63-4.87-5.28-4.87-1.76 0-2.2 0-2.66 1.62m-3.3 11.54l-1.43 5.37c-.9 3.42-1.57 5.72-1.57 6.3 0 1.27 1.12 1.9 3.02 1.9 5.18 0 8.7-2.66 8.7-7.67 0-2.8-1.3-4.78-3.02-5.36-.9-.32-2.84-.55-5.68-.55M401.08 181.5l.54-.73c6.9 4.15 11 11.68 11 19.34 0 8.35-3.97 14.76-11.14 19.13l-.4-.72c6.4-5.27 7.66-9.5 7.66-18.25 0-8.43-1.13-13.62-7.66-18.76"/><path d="M80 148.2c0 2.38-1.92 4.3-4.3 4.3-2.37 0-4.3-1.92-4.3-4.3 0-2.37 1.93-4.3 4.3-4.3 2.38 0 4.3 1.93 4.3 4.3z" stroke="#000" stroke-width="2" fill="#fff"/><path d="M161.22 119.5h60.37v60H161.2z" fill="#fff" fill-opacity="0"/><path d="M219.63 141.65c0 12.2-7.36 23.8-17.3 30.5-5.43 3.67-11.7 5.93-17.88 5.93-10.86 0-18.22-7.1-18.22-19.56 0-10.2 6.1-21.9 14.8-29.5 5.76-5 12.7-8.1 19.8-8.1 12.03-.08 18.8 8.02 18.8 20.73m-8.78-5.27c0-7.85-4.1-12.7-10.78-12.7-6.18 0-11.44 4.26-15.54 9.78-6.1 8.27-9.52 19.38-9.52 27.74 0 9.1 3.85 14.12 10.87 14.12 5.6 0 10.36-3.26 14.2-7.94 7.02-8.7 10.78-22.48 10.78-31"/><path d="M481.22 119.5h51.72v57.4h-51.72z" fill="#fff" fill-opacity="0"/><path d="M492.7 120.92h20.9c11.6 0 17.38 4.26 17.38 12.54 0 4.5-2.34 7.43-5.35 9.44-2.6 1.75-5.68 2.5-9.27 3.26v.08c7.18 2.17 10.52 6.6 10.52 12.54 0 11.2-9.44 16.7-22.97 16.7H481.2v-1.33c4.6-.67 5.5-1.5 6.93-6.68l10.12-36.44c.6-2.1.92-4.1.92-5.34 0-2.44-1.17-3.02-6.43-3.44v-1.34m9.87 24.23h3.17c10.95 0 16.8-4.42 16.8-12.7 0-6.18-3-9.02-9.78-9.02-3.26 0-4.1 0-4.93 3m-6.1 21.4l-2.67 9.94c-1.67 6.35-2.92 10.6-2.92 11.7 0 2.34 2.08 3.5 5.6 3.5 9.6 0 16.12-4.92 16.12-14.2 0-5.18-2.42-8.85-5.6-9.94-1.67-.58-5.26-1-10.53-1"/><path d="M324.88 281.3h53.06v57.4h-53.06z" fill="#fff" fill-opacity="0"/><path d="M377.9 282.72l-2.6 12.87-1.83-.18c.16-1.42.25-2.76.25-3.84 0-5.02-2.93-6.1-16.05-6.1-4.76 0-5.6.33-6.1 2.17l-5.5 19.47h6.5c7.53 0 8.44-1 11.62-8.1l1.5.33-5.7 19.38-1.66-.42c.42-1.82.6-2.83.6-4.33 0-1.42-.18-2.17-.6-2.6-.92-.83-3.17-1.24-6.52-1.24h-6.5l-2.7 9.35c-2.08 7.36-3 11.2-3 12.2 0 2 1.93 2.84 6.6 2.84 8.2 0 12.7-1 16.97-3.25 2.66-1.42 4.67-3.76 7.84-8.2l1.34.68-5.18 13.53h-42.37v-1.33c4.68-.84 5.44-1.34 6.77-6.2l10.28-36.92c.5-1.67.92-4.35.92-5.35 0-2.26-1.25-2.92-6.44-3.43v-1.33h41.53"/><path d="M29.37 20h131.85v40H29.37z" fill="#fff" fill-opacity="0"/><path d="M35.95 21.8h10.87c6.63 0 9.83 2.35 9.83 6.68 0 2.43-1.22 4.9-3.07 6.45-2.07 1.7-5.23 2.57-9.24 2.57-1.9 0-2.9-.1-4.06-.36l-2.4 8.7c-.3 1.22-.62 2.16-.62 2.84 0 1.04.67 1.58 3.1 1.85v.72h-11v-.72c2.58-.36 2.98-.77 3.8-3.7l5.23-18.67c.57-2.12.75-3.06.75-3.74 0-1.22-.63-1.58-3.2-1.9v-.72m7.85 2.76L40.7 35.6c1.3.23 1.52.23 2.33.23 2.8 0 4.37-.27 5.77-1.08 2-1.13 3.2-3.1 3.2-6.05 0-4-2.16-5.54-5.86-5.54-1.26 0-2.07.36-2.34 1.4M70.63 58.5l-.54.73c-7.14-4.06-11.02-11.68-11.02-19.34 0-8.35 3.93-14.85 11.14-19.13l.4.72c-6.26 5.36-7.66 9.55-7.66 18.25 0 8.4 1.35 13.48 7.67 18.76M103.5 32.4c0 6.6-3.97 12.85-9.33 16.46-2.93 1.98-6.32 3.2-9.65 3.2-5.87 0-9.83-3.83-9.83-10.55 0-5.5 3.28-11.8 7.97-15.9 3.1-2.7 6.85-4.38 10.68-4.38 6.5-.05 10.15 4.33 10.15 11.18m-4.73-2.84c0-4.24-2.2-6.85-5.82-6.85-3.34 0-6.18 2.3-8.4 5.28-3.28 4.47-5.13 10.46-5.13 14.97 0 4.92 2.07 7.62 5.86 7.62 3.02 0 5.6-1.75 7.67-4.28 3.8-4.7 5.82-12.14 5.82-16.74M110.54 51.88h-2.98v-31.1h2.98v31.1M145.12 32.4c0 6.6-3.97 12.85-9.33 16.46-2.94 1.98-6.33 3.2-9.66 3.2-5.86 0-9.83-3.83-9.83-10.55 0-5.5 3.3-11.8 8-15.9 3.1-2.7 6.84-4.38 10.68-4.38 6.5-.05 10.14 4.33 10.14 11.18m-4.73-2.84c0-4.24-2.22-6.85-5.83-6.85-3.34 0-6.18 2.3-8.4 5.28-3.28 4.47-5.13 10.46-5.13 14.97 0 4.92 2.08 7.62 5.86 7.62 3.03 0 5.6-1.75 7.67-4.28 3.8-4.7 5.82-12.14 5.82-16.74M147.47 21.5l.54-.73c6.9 4.15 11 11.68 11 19.34 0 8.35-3.96 14.76-11.13 19.13l-.4-.72c6.4-5.27 7.66-9.5 7.66-18.25 0-8.43-1.13-13.62-7.66-18.76"/><path d="M551.4 20h121.85v40H551.4z" fill="#fff" fill-opacity="0"/><path d="M558 21.8h10.86c6.63 0 9.83 2.35 9.83 6.68 0 2.43-1.23 4.9-3.08 6.45-2.07 1.7-5.23 2.57-9.24 2.57-1.9 0-2.9-.1-4.06-.36l-2.4 8.7c-.3 1.22-.62 2.16-.62 2.84 0 1.04.67 1.58 3.1 1.85v.72h-11v-.72c2.58-.36 2.98-.77 3.8-3.7l5.22-18.67c.6-2.12.77-3.06.77-3.74 0-1.22-.64-1.58-3.2-1.9v-.72m7.84 2.76l-3.12 11.04c1.3.23 1.54.23 2.35.23 2.8 0 4.37-.27 5.77-1.08 1.98-1.13 3.2-3.1 3.2-6.05 0-4-2.16-5.54-5.86-5.54-1.26 0-2.07.36-2.34 1.4M592.67 58.5l-.55.73c-7.12-4.06-11-11.68-11-19.34 0-8.35 3.93-14.85 11.14-19.13l.4.72c-6.26 5.36-7.66 9.55-7.66 18.25 0 8.4 1.35 13.48 7.67 18.76M599.88 21.8h11.27c6.27 0 9.38 2.3 9.38 6.77 0 2.43-1.26 4-2.88 5.1-1.4.94-3.07 1.35-5 1.75v.05c3.87 1.17 5.67 3.56 5.67 6.76 0 6.04-5.1 9.02-12.4 9.02h-12.26v-.72c2.48-.36 2.97-.8 3.74-3.6l5.46-19.67c.3-1.13.5-2.2.5-2.88 0-1.3-.64-1.63-3.48-1.85v-.73m5.32 13.08h1.72c5.9 0 9.06-2.4 9.06-6.85 0-3.34-1.62-4.87-5.28-4.87-1.76 0-2.2 0-2.66 1.62m-3.3 11.54l-1.43 5.37c-.9 3.42-1.57 5.72-1.57 6.3 0 1.27 1.13 1.9 3.02 1.9 5.2 0 8.7-2.66 8.7-7.67 0-2.8-1.3-4.78-3.02-5.36-.9-.32-2.84-.55-5.68-.55M627.57 51.88h-2.98v-31.1h2.97v31.1M636.5 21.8h11.27c6.27 0 9.38 2.3 9.38 6.77 0 2.43-1.26 4-2.9 5.1-1.38.94-3.05 1.35-5 1.75v.05c3.9 1.17 5.7 3.56 5.7 6.76 0 6.04-5.1 9.02-12.4 9.02h-12.28v-.72c2.48-.36 2.98-.8 3.75-3.6l5.45-19.67c.32-1.13.5-2.2.5-2.88 0-1.3-.63-1.63-3.47-1.85v-.73m5.32 13.08h1.7c5.92 0 9.07-2.4 9.07-6.85 0-3.34-1.63-4.87-5.28-4.87-1.76 0-2.2 0-2.66 1.62m-3.3 11.54l-1.44 5.37c-.9 3.42-1.57 5.72-1.57 6.3 0 1.27 1.12 1.9 3.02 1.9 5.18 0 8.7-2.66 8.7-7.67 0-2.8-1.3-4.78-3.02-5.36-.9-.32-2.84-.55-5.68-.55M659.5 21.5l.54-.73c6.9 4.15 11 11.68 11 19.34 0 8.35-3.97 14.76-11.14 19.13l-.4-.72c6.4-5.27 7.66-9.5 7.66-18.25 0-8.43-1.13-13.62-7.67-18.76"/><path d="M505.17 260h122.88v40H505.17z" fill="#fff" fill-opacity="0"/><path d="M511.75 261.8h10.87c6.63 0 9.83 2.35 9.83 6.68 0 2.43-1.22 4.9-3.07 6.45-2.07 1.7-5.23 2.57-9.24 2.57-1.9 0-2.9-.1-4.06-.36l-2.4 8.7c-.3 1.22-.62 2.16-.62 2.84 0 1.04.67 1.58 3.1 1.85v.72h-11v-.72c2.58-.36 2.98-.77 3.8-3.7l5.22-18.67c.6-2.12.77-3.06.77-3.74 0-1.22-.63-1.58-3.2-1.9v-.72m7.85 2.76l-3.12 11.04c1.3.23 1.54.23 2.35.23 2.8 0 4.37-.27 5.77-1.08 2-1.13 3.2-3.1 3.2-6.05 0-4-2.16-5.54-5.86-5.54-1.26 0-2.07.36-2.34 1.4M546.43 298.5l-.54.73c-7.14-4.06-11.02-11.68-11.02-19.34 0-8.35 3.93-14.85 11.14-19.13l.4.72c-6.26 5.36-7.66 9.55-7.66 18.25 0 8.4 1.35 13.48 7.67 18.76M576.37 261.8l-1.4 6.95-1-.1c.1-.76.14-1.48.14-2.07 0-2.7-1.56-3.3-8.64-3.3-2.57 0-3.03.2-3.3 1.2l-2.97 10.5h3.5c4.06 0 4.56-.55 6.27-4.38l.8.18-3.05 10.46-.9-.23c.22-.98.3-1.52.3-2.33 0-.77-.08-1.17-.3-1.4-.5-.45-1.72-.67-3.52-.67h-3.52l-1.44 5.05c-1.13 3.96-1.62 6.04-1.62 6.58 0 1.08 1.03 1.53 3.56 1.53 4.42 0 6.85-.54 9.15-1.76 1.44-.76 2.53-2.03 4.24-4.42l.72.37-2.8 7.3h-22.87v-.72c2.53-.45 2.94-.72 3.66-3.34l5.53-19.94c.27-.9.5-2.34.5-2.88 0-1.22-.68-1.58-3.47-1.85v-.73h22.4M582.37 291.88h-2.98v-31.1h2.97v31.1M591.3 261.8h11.27c6.27 0 9.38 2.3 9.38 6.77 0 2.43-1.27 4-2.9 5.1-1.4.94-3.06 1.35-5 1.75v.05c3.88 1.17 5.7 3.56 5.7 6.76 0 6.04-5.1 9.02-12.4 9.02h-12.28v-.72c2.48-.36 2.98-.8 3.74-3.6l5.47-19.67c.32-1.13.5-2.2.5-2.88 0-1.3-.63-1.63-3.48-1.85v-.73m5.32 13.08h1.7c5.92 0 9.07-2.4 9.07-6.85 0-3.34-1.63-4.87-5.28-4.87-1.76 0-2.2 0-2.66 1.62m-3.3 11.54l-1.44 5.37c-.9 3.42-1.58 5.72-1.58 6.3 0 1.27 1.13 1.9 3.02 1.9 5.2 0 8.7-2.66 8.7-7.67 0-2.8-1.3-4.78-3-5.36-.92-.32-2.85-.55-5.7-.55M614.3 261.5l.53-.73c6.9 4.15 11 11.68 11 19.34 0 8.35-3.96 14.76-11.13 19.13l-.4-.72c6.4-5.27 7.66-9.5 7.66-18.25 0-8.43-1.13-13.62-7.67-18.76"/><path d="M76.6 260h127.9v40H76.6z" fill="#fff" fill-opacity="0"/><path d="M83.2 261.8h10.86c6.63 0 9.83 2.35 9.83 6.68 0 2.43-1.23 4.9-3.08 6.45-2.07 1.7-5.23 2.57-9.24 2.57-1.9 0-2.9-.1-4.06-.36l-2.4 8.7c-.3 1.22-.62 2.16-.62 2.84 0 1.04.68 1.58 3.1 1.85v.72h-11v-.72c2.58-.36 2.98-.77 3.8-3.7l5.23-18.67c.58-2.12.76-3.06.76-3.74 0-1.22-.64-1.58-3.2-1.9v-.72m7.84 2.76l-3.1 11.04c1.3.23 1.52.23 2.33.23 2.8 0 4.38-.27 5.77-1.08 2-1.13 3.2-3.1 3.2-6.05 0-4-2.16-5.54-5.86-5.54-1.26 0-2.07.36-2.34 1.4M117.87 298.5l-.54.73c-7.13-4.06-11-11.68-11-19.34 0-8.35 3.92-14.85 11.13-19.13l.4.72c-6.26 5.36-7.66 9.55-7.66 18.25 0 8.4 1.36 13.48 7.67 18.76M147.8 261.8l-1.4 6.95-.98-.1c.1-.76.14-1.48.14-2.07 0-2.7-1.58-3.3-8.66-3.3-2.57 0-3.02.2-3.3 1.2l-2.97 10.5h3.52c4.06 0 4.55-.55 6.26-4.38l.83.18-3.07 10.46-.9-.23c.22-.98.3-1.52.3-2.33 0-.77-.08-1.17-.3-1.4-.5-.45-1.72-.67-3.52-.67h-3.52l-1.44 5.05c-1.13 3.96-1.62 6.04-1.62 6.58 0 1.08 1.03 1.53 3.56 1.53 4.42 0 6.85-.54 9.15-1.76 1.45-.76 2.53-2.03 4.24-4.42l.73.37-2.8 7.3H119.2v-.72c2.52-.45 2.93-.72 3.65-3.34l5.54-19.94c.28-.9.5-2.34.5-2.88 0-1.22-.68-1.58-3.47-1.85v-.73h22.4M153.8 291.88h-2.97v-31.1h2.98v31.1M188.4 272.4c0 6.6-3.97 12.85-9.34 16.46-2.93 1.98-6.3 3.2-9.65 3.2-5.85 0-9.82-3.83-9.82-10.55 0-5.5 3.3-11.8 7.98-15.9 3.1-2.7 6.86-4.38 10.7-4.38 6.48-.05 10.13 4.33 10.13 11.18m-4.74-2.84c0-4.24-2.2-6.85-5.82-6.85-3.33 0-6.18 2.3-8.4 5.28-3.28 4.47-5.13 10.46-5.13 14.97 0 4.92 2.1 7.62 5.88 7.62 3.02 0 5.6-1.75 7.66-4.28 3.8-4.7 5.82-12.14 5.82-16.74M190.74 261.5l.54-.73c6.9 4.15 11 11.68 11 19.34 0 8.35-3.97 14.76-11.14 19.13l-.4-.72c6.4-5.27 7.66-9.5 7.66-18.25 0-8.43-1.12-13.62-7.66-18.76"/><path d="M111.9 148.2H82" stroke="#000" stroke-width="2" fill="none"/><path d="M127.17 148.2l-14.27 4.64v-9.27z" stroke="#000" stroke-width="2"/><path d="M82.03 149.2H80.7l.3-.84-.04-.9-.13-.26h1.2z"/><path d="M129.4 148.17l-4.25-.16-3.95-.44-3.07-.6-2.44-.66-2-.7-1.64-.75-1.4-.76-1.18-.78-1.03-.78-.9-.8-.78-.82-.7-.85-.6-.87-.54-.92-.48-.97-.4-1.02-.36-1.1-.28-1.2-.2-1.33-.1-1.47v-1.66l.16-1.88.35-2.2.62-2.56 1-3.06 1.5-3.7 2.27-4.48 3.3-5.46 4.65-6.5 6.18-7.4 7.5-7.7 8.1-7.1 7.77-5.86 6.83-4.37 5.72-3.07 4.7-2.07 3.84-1.34 3.2-.85 2.65-.5 2.26-.24 1.95-.06 1.7.08 1.5.2 1.35.26 1.22.35 1.12.4 1.04.48.97.54.92.6.87.7.83.75.8.85.78.96.75 1.1.74 1.27.7 1.47.03.07" stroke="#000" stroke-width="2" fill="none"/><path d="M130.45 147.2l-.05 1 .04 1-1.1-.03.07-2z"/><path d="M195.04 84.17l-6.55-13.5 9.18-1.27z" stroke="#000" stroke-width="2"/><path d="M569.08 148.17l4.25-.17 3.95-.48 3.08-.64 2.45-.72 2.02-.77 1.67-.82 1.4-.84 1.22-.85 1.05-.9.92-.9.8-.95.7-.98.65-1.04.55-1.1.47-1.2.4-1.3.3-1.42.23-1.57.1-1.8-.07-2.04-.27-2.4-.56-2.8-.95-3.35-1.53-4.06-2.33-4.95-3.45-5.95-4.8-6.93-6.2-7.57-7.18-7.43-7.35-6.46-6.78-5.04-5.84-3.64-4.87-2.5-4.02-1.68-3.33-1.08-2.8-.65-2.38-.34-2.07-.14-1.8.03-1.6.16-1.46.28-1.32.36-1.2.43-1.15.52-1.08.6-1.02.68-.98.8-.95.9-.93 1.02-.9 1.2-.9 1.4-.17.32" stroke="#000" stroke-width="2" fill="none"/><path d="M569.15 149.16l-1.1.05.03-1-.03-1 1.02-.03z"/><path d="M509.65 84.13l-1.28-14.95 9.03 2.1z" stroke="#000" stroke-width="2"/><path d="M20 134.58h38.64v27.25H20z" fill="#fff" fill-opacity="0"/><path d="M46.57 135.54h1c2.88 0 5.2.56 6.7 1.86 1.86 1.57 2.54 4.1 2.54 6.8 0 3.05-.95 5.92-2.4 8.68-3 5.57-7.33 8-10.93 8-4.4 0-5.52-2.04-6.42-4-2.2 2.64-4.27 4-8.27 4-3.6 0-7.26-2.38-7.26-7.95 0-1.52.17-3.04.56-4.56 1.86-6.8 7.66-12.83 15.6-12.83h1v.9c-2.86 0-5.4 1-7.54 3.66-2.8 3.55-4.9 9.62-4.9 14.3 0 3.88 1.4 5.3 3.22 5.3 2.53 0 5.8-3.17 6.86-6.26-.1-.85-.17-2.08-.17-2.87 0-1.4.23-3.15.68-4.84.8-2.93 2.48-5.63 4.56-5.63 1.34 0 1.96 1.07 1.96 2.6 0 2.52-1.13 6.07-2.37 8.2-.46.8-1.2 2.03-1.75 2.88-.1.4-.1.78-.1 1.18 0 2.42 1.28 4.73 3.64 4.73 3.15 0 5.34-2.66 6.58-4.97 1.74-3.26 2.7-8.2 2.7-11.82 0-1-.05-2.57-.28-3.42-.68-2.64-2.87-3.04-5.23-3.04v-.9"/></g></svg>